<svg width="89" height="13" viewBox="0 0 89 13" fill="none" xmlns="http://www.w3.org/2000/svg">
<g clip-path="url(#clip0_1683_4)">
<path d="M12.0531 11.9999H8.72115L4.28415 5.30189V11.9999H0.952148V0.0148926H4.28415L8.72115 6.79789V0.0148926H12.0531V11.9999ZM23.0631 7.12089C23.0631 7.38156 23.0461 7.64222 23.0121 7.90289H16.7051C16.7391 8.42422 16.8808 8.81522 17.1301 9.07589C17.3908 9.32522 17.7195 9.44989 18.1161 9.44989C18.6715 9.44989 19.0681 9.20056 19.3061 8.70189H22.8591C22.7118 9.35922 22.4228 9.94856 21.9921 10.4699C21.5728 10.9799 21.0401 11.3822 20.3941 11.6769C19.7481 11.9716 19.0341 12.1189 18.2521 12.1189C17.3115 12.1189 16.4728 11.9206 15.7361 11.5239C15.0108 11.1272 14.4385 10.5606 14.0191 9.82389C13.6111 9.08722 13.4071 8.22022 13.4071 7.22289C13.4071 6.22556 13.6111 5.36422 14.0191 4.63889C14.4271 3.90222 14.9938 3.33556 15.7191 2.93889C16.4558 2.54222 17.3001 2.34389 18.2521 2.34389C19.1928 2.34389 20.0258 2.53656 20.7511 2.92189C21.4765 3.30722 22.0431 3.86256 22.4511 4.58789C22.8591 5.30189 23.0631 6.14622 23.0631 7.12089ZM19.6631 6.28789C19.6631 5.87989 19.5271 5.56256 19.2551 5.33589C18.9831 5.09789 18.6431 4.97889 18.2351 4.97889C17.8271 4.97889 17.4928 5.09222 17.2321 5.31889C16.9715 5.53422 16.8015 5.85722 16.7221 6.28789H19.6631ZM30.3767 11.9999L28.6597 9.60289L27.2997 11.9999H23.6447L26.8237 7.05289L23.5087 2.46289H27.2487L28.9657 4.85989L30.3427 2.46289H33.9977L30.7507 7.32489L34.1167 11.9999H30.3767ZM40.7285 9.16089V11.9999H39.2836C36.8469 11.9999 35.6285 10.7929 35.6285 8.37889V5.23389H34.4555V2.46289H35.6285V0.150893H38.9776V2.46289H40.7115V5.23389H38.9776V8.42989C38.9776 8.69056 39.0342 8.87756 39.1475 8.99089C39.2722 9.10422 39.4762 9.16089 39.7595 9.16089H40.7285ZM53.3578 11.9999H50.0258L45.5888 5.30189V11.9999H42.2568V0.0148926H45.5888L50.0258 6.79789V0.0148926H53.3578V11.9999ZM64.3678 7.12089C64.3678 7.38156 64.3509 7.64222 64.3169 7.90289H58.0098C58.0438 8.42422 58.1855 8.81522 58.4348 9.07589C58.6955 9.32522 59.0241 9.44989 59.4208 9.44989C59.9761 9.44989 60.3728 9.20056 60.6108 8.70189H64.1638C64.0165 9.35922 63.7275 9.94856 63.2968 10.4699C62.8775 10.9799 62.3448 11.3822 61.6988 11.6769C61.0528 11.9716 60.3389 12.1189 59.5569 12.1189C58.6162 12.1189 57.7775 11.9206 57.0408 11.5239C56.3155 11.1272 55.7431 10.5606 55.3238 9.82389C54.9158 9.08722 54.7118 8.22022 54.7118 7.22289C54.7118 6.22556 54.9158 5.36422 55.3238 4.63889C55.7318 3.90222 56.2985 3.33556 57.0238 2.93889C57.7605 2.54222 58.6049 2.34389 59.5569 2.34389C60.4976 2.34389 61.3305 2.53656 62.0558 2.92189C62.7811 3.30722 63.3478 3.86256 63.7558 4.58789C64.1638 5.30189 64.3678 6.14622 64.3678 7.12089ZM60.9678 6.28789C60.9678 5.87989 60.8318 5.56256 60.5598 5.33589C60.2878 5.09789 59.9478 4.97889 59.5398 4.97889C59.1318 4.97889 58.7975 5.09222 58.5368 5.31889C58.2761 5.53422 58.1061 5.85722 58.0268 6.28789H60.9678ZM79.8244 2.46289L77.3934 11.9999H73.6534L72.3274 6.21989L70.9504 11.9999H67.2274L64.8134 2.46289H68.1284L69.1994 8.78689L70.6104 2.46289H74.1804L75.6424 8.80389L76.6964 2.46289H79.8244ZM84.8354 12.1189C83.9741 12.1189 83.2034 11.9772 82.5234 11.6939C81.8547 11.3992 81.3221 11.0026 80.9254 10.5039C80.5401 9.99389 80.3247 9.42156 80.2794 8.78689H83.5094C83.5547 9.09289 83.6964 9.33089 83.9344 9.50089C84.1724 9.67089 84.4671 9.75589 84.8184 9.75589C85.0904 9.75589 85.3057 9.69922 85.4644 9.58589C85.6231 9.47256 85.7024 9.32522 85.7024 9.14389C85.7024 8.90589 85.5721 8.73022 85.3114 8.61689C85.0507 8.50356 84.6201 8.37889 84.0194 8.24289C83.3394 8.10689 82.7727 7.95389 82.3194 7.78389C81.8661 7.61389 81.4694 7.33622 81.1294 6.95089C80.8007 6.56556 80.6364 6.04422 80.6364 5.38689C80.6364 4.82022 80.7894 4.31022 81.0954 3.85689C81.4014 3.39222 81.8491 3.02389 82.4384 2.75189C83.0391 2.47989 83.7587 2.34389 84.5974 2.34389C85.8441 2.34389 86.8244 2.64989 87.5384 3.26189C88.2524 3.87389 88.6661 4.67856 88.7794 5.67589H85.7704C85.7137 5.36989 85.5777 5.13756 85.3624 4.97889C85.1584 4.80889 84.8807 4.72389 84.5294 4.72389C84.2574 4.72389 84.0477 4.77489 83.9004 4.87689C83.7644 4.97889 83.6964 5.12056 83.6964 5.30189C83.6964 5.52856 83.8267 5.70422 84.0874 5.82889C84.3481 5.94222 84.7674 6.06122 85.3454 6.18589C86.0367 6.33322 86.6091 6.49756 87.0624 6.67889C87.5271 6.86022 87.9294 7.15489 88.2694 7.56289C88.6207 7.95956 88.7964 8.50356 88.7964 9.19489C88.7964 9.75022 88.6321 10.2489 88.3034 10.6909C87.9861 11.1329 87.5271 11.4842 86.9264 11.7449C86.3371 11.9942 85.6401 12.1189 84.8354 12.1189Z" fill="#323238"/>
</g>
<defs>
<clipPath id="clip0_1683_4">
<rect width="89" height="13" fill="white"/>
</clipPath>
</defs>
</svg>
