<svg width="89" height="13" viewBox="0 0 89 13" fill="none" xmlns="http://www.w3.org/2000/svg">
<path d="M12.053 12H8.721L4.284 5.302V12H0.952V0.0149993H4.284L8.721 6.798V0.0149993H12.053V12ZM23.063 7.121C23.063 7.38167 23.046 7.64233 23.012 7.903H16.705C16.739 8.42433 16.8807 8.81533 17.13 9.076C17.3907 9.32533 17.7194 9.45 18.116 9.45C18.6714 9.45 19.068 9.20067 19.306 8.702H22.859C22.7117 9.35933 22.4227 9.94867 21.992 10.47C21.5727 10.98 21.04 11.3823 20.394 11.677C19.748 11.9717 19.034 12.119 18.252 12.119C17.3114 12.119 16.4727 11.9207 15.736 11.524C15.0107 11.1273 14.4384 10.5607 14.019 9.824C13.611 9.08733 13.407 8.22033 13.407 7.223C13.407 6.22567 13.611 5.36433 14.019 4.639C14.427 3.90233 14.9937 3.33567 15.719 2.939C16.4557 2.54233 17.3 2.344 18.252 2.344C19.1927 2.344 20.0257 2.53667 20.751 2.922C21.4764 3.30733 22.043 3.86267 22.451 4.588C22.859 5.302 23.063 6.14633 23.063 7.121ZM19.663 6.288C19.663 5.88 19.527 5.56267 19.255 5.336C18.983 5.098 18.643 4.979 18.235 4.979C17.827 4.979 17.4927 5.09233 17.232 5.319C16.9714 5.53433 16.8014 5.85733 16.722 6.288H19.663ZM30.3766 12L28.6596 9.603L27.2996 12H23.6446L26.8236 7.053L23.5086 2.463H27.2486L28.9656 4.86L30.3426 2.463H33.9976L30.7506 7.325L34.1166 12H30.3766ZM40.7284 9.161V12H39.2834C36.8467 12 35.6284 10.793 35.6284 8.379V5.234H34.4554V2.463H35.6284V0.151H38.9774V2.463H40.7114V5.234H38.9774V8.43C38.9774 8.69067 39.0341 8.87767 39.1474 8.991C39.2721 9.10433 39.4761 9.161 39.7594 9.161H40.7284ZM53.3577 12H50.0257L45.5887 5.302V12H42.2567V0.0149993H45.5887L50.0257 6.798V0.0149993H53.3577V12ZM64.3677 7.121C64.3677 7.38167 64.3507 7.64233 64.3167 7.903H58.0097C58.0437 8.42433 58.1854 8.81533 58.4347 9.076C58.6954 9.32533 59.024 9.45 59.4207 9.45C59.976 9.45 60.3727 9.20067 60.6107 8.702H64.1637C64.0164 9.35933 63.7274 9.94867 63.2967 10.47C62.8774 10.98 62.3447 11.3823 61.6987 11.677C61.0527 11.9717 60.3387 12.119 59.5567 12.119C58.616 12.119 57.7774 11.9207 57.0407 11.524C56.3154 11.1273 55.743 10.5607 55.3237 9.824C54.9157 9.08733 54.7117 8.22033 54.7117 7.223C54.7117 6.22567 54.9157 5.36433 55.3237 4.639C55.7317 3.90233 56.2984 3.33567 57.0237 2.939C57.7604 2.54233 58.6047 2.344 59.5567 2.344C60.4974 2.344 61.3304 2.53667 62.0557 2.922C62.781 3.30733 63.3477 3.86267 63.7557 4.588C64.1637 5.302 64.3677 6.14633 64.3677 7.121ZM60.9677 6.288C60.9677 5.88 60.8317 5.56267 60.5597 5.336C60.2877 5.098 59.9477 4.979 59.5397 4.979C59.1317 4.979 58.7974 5.09233 58.5367 5.319C58.276 5.53433 58.106 5.85733 58.0267 6.288H60.9677ZM79.8243 2.463L77.3933 12H73.6533L72.3273 6.22L70.9503 12H67.2273L64.8133 2.463H68.1283L69.1993 8.787L70.6103 2.463H74.1803L75.6423 8.804L76.6963 2.463H79.8243ZM84.8353 12.119C83.974 12.119 83.2033 11.9773 82.5233 11.694C81.8546 11.3993 81.322 11.0027 80.9253 10.504C80.54 9.994 80.3246 9.42167 80.2793 8.787H83.5093C83.5546 9.093 83.6963 9.331 83.9343 9.501C84.1723 9.671 84.467 9.756 84.8183 9.756C85.0903 9.756 85.3056 9.69933 85.4643 9.586C85.623 9.47267 85.7023 9.32533 85.7023 9.144C85.7023 8.906 85.572 8.73033 85.3113 8.617C85.0506 8.50367 84.62 8.379 84.0193 8.243C83.3393 8.107 82.7726 7.954 82.3193 7.784C81.866 7.614 81.4693 7.33633 81.1293 6.951C80.8006 6.56567 80.6363 6.04433 80.6363 5.387C80.6363 4.82033 80.7893 4.31033 81.0953 3.857C81.4013 3.39233 81.849 3.024 82.4383 2.752C83.039 2.48 83.7586 2.344 84.5973 2.344C85.844 2.344 86.8243 2.65 87.5383 3.262C88.2523 3.874 88.666 4.67867 88.7793 5.676H85.7703C85.7136 5.37 85.5776 5.13767 85.3623 4.979C85.1583 4.809 84.8806 4.724 84.5293 4.724C84.2573 4.724 84.0476 4.775 83.9003 4.877C83.7643 4.979 83.6963 5.12067 83.6963 5.302C83.6963 5.52867 83.8266 5.70433 84.0873 5.829C84.348 5.94233 84.7673 6.06133 85.3453 6.186C86.0366 6.33333 86.609 6.49767 87.0623 6.679C87.527 6.86033 87.9293 7.155 88.2693 7.563C88.6206 7.95967 88.7963 8.50367 88.7963 9.195C88.7963 9.75033 88.632 10.249 88.3033 10.691C87.986 11.133 87.527 11.4843 86.9263 11.745C86.337 11.9943 85.64 12.119 84.8353 12.119Z" fill="white"/>
</svg>
